<?xml version="1.0" encoding="utf-8"?>
<!-- Generator: Adobe Illustrator 19.0.0, SVG Export Plug-In . SVG Version: 6.00 Build 0)  -->
<svg version="1.1" id="Layer_1" xmlns="http://www.w3.org/2000/svg" xmlns:xlink="http://www.w3.org/1999/xlink" x="0px" y="0px"
	 viewBox="0 0 100 100" style="enable-background:new 0 0 100 100;" xml:space="preserve">
<style type="text/css">
	.st0{fill:#FFFFFF;}
</style>
<path id="XMLID_48_" class="st0" d="M50,97.5c-7.8-0.2-15.6-0.4-23.3-0.8C14.3,96,4.1,86.3,3.4,74C2.8,62.3,2.5,50.5,2.5,38.7
	c0-5.2,0.4-10.6,1.4-15.7C6.2,12.2,15.2,4.6,26.3,3.6C42.5,2.2,58.9,2,75.1,3.8c12,1.3,21.2,10.5,21.8,23.1
	c0.7,13.8,0.6,27.7,0.5,41.6c-0.1,4.4-1,9-2.5,13.1C91.2,91,83.5,95.8,73.5,96.7C65.7,97.3,57.9,97.2,50,97.5z M50.1,11.2
	c-7.7,0.3-15.6,0.5-23.5,1c-6.8,0.5-12.6,5.1-14,11.8c-1,4.5-1.3,9.2-1.2,13.8c0,12,0.1,24.1,0.7,36.1c0.3,6.6,5.2,12.1,11.7,13.5
	c4.5,1,9.2,1.3,13.9,1.3c11.6,0.1,23.1,0,34.7-0.5c8.7-0.3,14.5-5.6,15.9-14.1c0.6-3.8,0.8-7.7,0.8-11.5c0-11.5,0-23-0.5-34.5
	c-0.4-9.1-6.5-15.3-15.6-16C65.4,11.5,57.9,11.5,50.1,11.2z"/>
<path id="XMLID_41_" class="st0" d="M50.2,25.9c13.8,0,24.3,10.7,24.3,24.5c0,13.3-10.9,23.9-24.5,23.8c-13.6,0-24.3-10.8-24.2-24.4
	C25.8,36.5,36.6,25.9,50.2,25.9z M50.3,34.4c-8.8,0-15.9,6.9-15.9,15.6c0,8.7,7.1,15.8,15.8,15.8c8.8,0,15.8-7.1,15.8-15.7
	C65.9,41.5,58.9,34.5,50.3,34.4z"/>
<path id="XMLID_40_" class="st0" d="M70,24.9c0-3.2,2.3-5.6,5.4-5.6c3.1,0,5.7,2.5,5.7,5.7c0,3.2-2.6,5.7-5.8,5.6
	C72.2,30.4,69.9,28.1,70,24.9z"/>
</svg>
