<?xml version="1.0" encoding="utf-8"?>
<!-- Generator: Adobe Illustrator 19.0.0, SVG Export Plug-In . SVG Version: 6.00 Build 0)  -->
<svg version="1.1" id="Layer_1" xmlns="http://www.w3.org/2000/svg" xmlns:xlink="http://www.w3.org/1999/xlink" x="0px" y="0px"
	 viewBox="0 0 248.5 131.5" style="enable-background:new 0 0 248.5 131.5;" xml:space="preserve">
<style type="text/css">
	.st0{fill:#fff;}
	.st1{fill:#fff;}
</style>
<path class="st0" d="M223-66.3c-0.3,0-0.4-0.1-0.4-0.3c0-0.2,0.2-0.3,0.4-0.3c0.2,0,0.5,0.1,0.4,0.4C223.3-66.3,223.1-66.3,223-66.3
	z"/>
<path class="st1" d="M160.6,73.5c-0.4,0.2-0.5,0.6-0.8,0.9c-1.8,2.8-3.6,5.5-6,7.8c-4.1,4-9.6,2.5-12.7-0.3
	c-1.8-1.6-2.7-3.6-2.6-6.1c0.2-4,1.1-7.9,2.3-11.8c0.8-2.4,1.5-4.8,2.1-7.5c-1.1,0.8-1.7,1.6-2.2,2.5c-2.4,4.2-5.9,7.7-9,11.5
	c-1.9,2.4-4.5,4.2-7,5.9c-1.2,0.8-2.6,0.9-3.9,0.3c-1.8-0.8-3.6-1.7-4.4-4c-1.7,2.7-3.3,5.3-4.9,7.8c-1.4,2.1-2.8,4.2-4.5,6.1
	c-0.2,0.3-0.5,0.5-0.7,0.8c-4,3.9-9.8,2.7-11.9-2.5C93.2,82,93,79,93.4,76c0.3-2.3,0.8-4.5,1.6-6.6c1.4-3.6,2.7-7.3,4-11
	c-0.7,0.1-0.7,0.7-0.9,1.1c-3,5.6-6.9,10.5-11,15.3c-0.8,0.9-1.6,1.8-2.6,2.4c-2.2,1.5-4.7,1.6-6.9,0.1c-2.8-2-4.2-4.7-3.8-8.2
	c0-0.4,0.2-0.8,0-1.2c-0.6,0-0.9,0.6-1.2,1c-3.5,3.9-7.7,7-11.9,10.1c-2.8,2.1-5.9,1.7-8.8,0.2c-4.3-2.3-6.9-7.8-4.9-12.8
	c0.3-0.7,0.7-1.4,0.7-2.2c0.1,0,0.2-0.1,0.1-0.2c-0.1-0.1-0.2,0-0.2,0.2c-0.5-0.1-0.8,0.2-1.2,0.4c-2.5,1.4-5,2.9-7.5,4.3
	c-1.5,0.8-2.5,2-3.2,3.5c-0.9,1.9-1.9,3.7-3.1,5.5c-2.5,3.8-5.5,7.1-9.2,9.8c-2.1,1.6-4.7,2.4-7.2,2.4c-3.2,0-6.1-1.2-8.3-3.6
	c-0.7-0.8-1.1-1.7-1-2.8c0-0.9-0.4-1.4-1.1-1.8c-2.8-1.7-4.1-4.4-3.8-7.4c0.2-1.9-0.1-3.9,0.4-5.6c0.9-3.1,1.1-6.4,3-9.2
	c0.2-0.3,0.3-0.7,0.3-1c0.2-3.1,1.5-5.8,2.7-8.5c2.7-6.3,5.9-12.3,10-17.8c5.3-7.1,10.9-14,17.8-19.7c1.7-1.4,3.5-2.7,5.4-3.8
	c3-1.8,6.2-2.2,9.5-1.5c3.7,0.8,5.3,3.9,3.7,7.4c-0.5,1-1,2-1.6,3c-1.6,2.8-3.1,5.7-4.7,8.5c-6,10.2-13.8,18.8-23,26.2
	c-2.2,1.8-4.4,3.5-6.8,5c-1.8,1.1-3.6,2.1-5.6,2.7c-0.6,0.2-1.1,0.3-1.4,1c-1.9,5-3.2,10.2-3.5,15.6c1,0,1.3-0.7,1.8-1.3
	c1.9-2.5,3.8-5,5.9-7.3c2.2-2.4,4.7-4.5,7.3-6.3c2.6-1.8,5.7-2.6,8.7-3.1c2.2-0.4,5,2.1,5.4,4.4c0.2,1.2,0.3,2.4,0.4,3.6
	c1.1-0.2,1.9-0.7,2.7-1.1c2.8-1.5,5.5-3.1,8.3-4.7c0.7-0.4,1.2-0.9,1.7-1.6c1.2-1.8,2.4-3.6,3.7-5.3c2.5-3.3,5.6-5.8,8.9-8.1
	c2.3-1.6,5-1.6,7.5-0.2c1.6,0.9,2.1,2.2,1.6,4c-0.4,1.4-1.2,2.6-2.2,3.7c-3.1,3.3-6.6,6.1-10.8,8c-2.3,1-3.8,2.6-4.7,4.9
	c-0.7,1.7-1.4,3.4-1.9,5.2c-0.1,0.5-0.2,0.9-0.2,1.4c-0.2,3.4,1.4,4.8,4.7,4.1c1.6-0.3,2.9-1.1,4.3-1.9c4.8-2.9,8.7-6.7,12.1-11.1
	c1.9-2.4,3.6-4.9,5.5-7.4c1.6-2.2,3.4-4.2,5.3-6.2c3-3,7.1-3.7,10.5-1.9c0.7,0.4,1.3,0.8,1.8,1.4c0.4,0.5,0.6,1.1,1.1,1.4
	c0.5,0.4,0.9,0.8,1.5,1.3c0.8-1.8,3-1.7,4.3-2.9c0.2-0.1,0.4-0.2,0.7-0.2c3.3-0.1,6,2.8,5,5.9c-0.2,0.7-0.5,1.3-0.9,2
	c-2.7,5-4.8,10.3-6.8,15.7c-1.6,4.2-1.9,8.6-1.1,13.1c0.2,1.4,0.7,1.6,1.9,1.1c0.9-0.4,1.7-1.1,2.5-1.8c4.8-4.7,8.1-10.4,11-16.3
	c1.7-3.6,2.9-7.3,4.4-11c1.2-3.2,2.6-6.3,4-9.4c1-2.3,2.5-2.8,4.8-1.8c0.8,0.4,1.4,0.9,2,1.5c0.8,1,1,2,0.6,3.2
	c-0.4,1-0.9,2-1.4,2.9c-2.7,5.1-5,10.4-6.4,16c-0.2,0.9-0.7,1.9,0.2,2.5c0.8,0.5,1.6-0.3,2.2-0.8c0.5-0.3,1-0.8,1.5-1.3
	c4.1-4,7.7-8.5,11.2-13.1c2.5-3.2,5-6.5,7.4-9.7c0.5-0.7,1.2-0.9,2-1c1.7-0.2,3.2,0,4.5,1.2c1.4,1.3,1.8,2.9,0.9,4.6
	c-1.7,3.2-2.9,6.6-4.3,9.9c-1.9,4.6-2.9,9.4-3.6,14.3c-0.2,1.2-0.1,2.4,0.3,3.6c0.3,1,0.7,1.1,1.8,1c1.3-0.2,2.5-0.9,3.5-1.8
	c5.2-4.7,9.3-10.2,12.7-16.2c0.6-1.1,1-2.4,1.9-3.4c0.2-0.2,0.3-0.5,0.3-0.8c0-3.5,1.7-6.4,2.8-9.6c1.2-3.3,2.4-6.7,4.1-9.8
	c0.1-0.2,0.2-0.4,0.3-0.7c1.7-5.9,4.8-11.2,7.4-16.8c1.2-2.5,1.7-2.6,3.7-0.7c0.2,0.2,0.4,0.4,0.7,0.5c0.7-1.6,0.5-2.1-1.2-2.1
	c-6.6,0.1-13.3-0.4-19.9,0.6c-0.9,0.1-1.7,0.2-3,0c1.5-0.8,2.9-0.6,4.2-0.9c0.4-0.1,0.8,0,1.3-0.1c0.3,0,0.7-0.1,0.7-0.4
	c0-1.1,0.8-0.9,1.4-0.9c1.4-0.1,2.9,0.2,4.1-0.4c1.7-0.7,3.4-0.1,5-0.7c1.6-0.6,3.3-0.4,5-0.4c0.9,0,1.4-0.5,1.8-1.2
	c2.5-4.1,5.1-8.1,7.5-12.3c1.4-2.4,2.9-2.4,5.2-1.2c0.4,0.2,0.8,0.6,1.1,0.9c1.6,1.5,1.7,2.7,0.4,4.6c-1.7,2.4-3.5,4.7-5.2,7.1
	c-0.3,0.5-0.9,0.9-0.9,1.6c1,0.7,2.1,0.7,3.2,0.8c1.1,0.1,2.3,0.2,3.4,0.5c1.1,0.2,1.6,0.8,1.6,1.6c0,0.8-0.5,1.5-1.6,1.7
	c-1.4,0.3-2.7,0.2-4.1,0c-1.4-0.2-2.8-0.5-4.3-0.5c-0.8,0-1.4,0.3-1.7,1c-0.3,0.5-0.5,0.9-0.8,1.4c-5,8.3-8.6,17.3-12.1,26.3
	c-1.8,4.5-3.4,9.1-4.9,13.7c-2.1,6.1-4,12.3-5.6,18.6c-0.7,2.6-0.9,5.3,0,8c0.9,2.7,1.4,2.9,3.7,1.3c3.8-2.5,6.9-5.8,9.8-9.2
	c2.9-3.4,5.5-7.1,7.8-11c1.6-2.7,3.7-5,5.3-7.7c0.4-0.6,0.8-1.2,1-1.9c1.6-4.3,4-8.3,5.9-12.5c1-2.1,2.1-2.5,4.2-1.7
	c0.3,0.1,0.7,0.3,1,0.4c2.6,1.3,3.1,2.8,1.7,5.2c-1.3,2.2-2.4,4.4-3.8,6.6c-1.8,2.9-3.1,6.1-3.8,9.4c-0.4,1.8-0.9,3.6-1.3,5.4
	c-0.3,1.5,0.3,2,1.7,1.3c3.3-1.6,6.5-3.3,9.3-5.8c4.5-4,8.7-8.2,12.6-12.8c0.5-0.6,1.1-1.1,1.6-1.7c1.4-1.4,2.5-3.1,3-5
	c0.1-0.5,0.3-0.9,0.5-1.4c0.5-1.2,1.1-1.6,2.4-1.5c1.3,0.1,2.5,0.5,3.4,1.4c1,0.9,1.4,2.1,0.9,3.4c-0.2,0.6-0.4,1.1-0.6,1.7
	c-2.3,5.8-3.7,11.9-5.4,17.9c-0.1,0.2-0.1,0.5,0.1,0.7c0.5,0.3,0.8-0.1,1.1-0.3c3.5-2.3,6.7-5,9.8-7.8c2.3-2.1,4.6-4.2,6.8-6.4
	c1.2-1.3,2.4-1.9,4.2-1.3c-0.7,1.4-1.8,2.6-3,3.6c-3.5,3.1-7.1,6.1-10.6,9.2c-2.4,2-4.9,3.8-7.6,5.5c-1.4,0.9-2.4,2.1-2.9,3.7
	c-2,6.2-3.9,12.5-5.9,18.7c-2.8,8.6-6.1,17.1-11,24.8c-2,3.2-4.5,5.9-7.8,7.8c-3.4,1.9-6.9,2.6-10.7,1.8c-2.8-0.6-5.5-1.6-7.9-3.2
	c-2.7-1.7-4.4-5.8-3.8-9.1c1.1-6.1,3.8-11.4,8.1-16c4.4-4.6,9.1-8.7,14.4-12.1c3.9-2.5,7.6-5.3,11.3-8c1.4-1,2.9-1.9,4.4-2.8
	c1-0.6,1.6-1.4,1.9-2.5c1.6-5.4,3.3-10.8,4.5-16.3c0.2-0.7,0.3-1.4,0.3-2.1c0.1-0.1,0.2-0.3,0.1-0.4c-0.2-0.1-0.3,0-0.4,0.1
	c-1.1,1.1-2.2,2.1-3.1,3.2c-3.3,3.8-7,7-10.9,10.1c-2.2,1.8-4.7,3-7.2,4.5c-0.5,0.3-1,0.5-1.4,0.9c-0.7,0.6-1.5,0.6-2.4,0.4
	c-3.6-0.9-5.6-3.3-5.8-7c0-0.3,0.1-0.7-0.2-1c-0.5-0.1-0.7,0.4-0.9,0.7c-0.8,1.1-1.4,2.2-1.8,3.5c-0.6,2.2-1.7,4.1-3.1,5.8
	c-2.9,3.4-5.8,6.9-8.9,10.1c-1.4,1.5-3,2.7-4.7,3.9c-2,1.4-4.2,1.8-6.4,0.6c-0.1-0.1-0.2-0.1-0.3-0.2c-4.7-1.3-6-4.9-6.3-9.2
	c-0.1-1.7,0.2-3.3,0.6-5C159.5,78,160.3,75.8,160.6,73.5c0.7-0.1,1.1,0.1,1.1,0.9c0,0.5-0.2,1.1-0.3,1.6c-0.1,0.5-0.4,1.2,0.4,1.5
	c1,0.4,1.7,0.3,2.2-0.4c0.8-1.1,0.5-2.2,0.1-3.2c-0.4-0.9-1.8-0.8-2.4-1.6c0,0-0.3,0.1-0.4,0.2C160.9,72.8,160.6,73,160.6,73.5z
	 M67.3,50.8c-1.9,1.1-3.5,2.5-5.1,4c-0.4,0.4-0.9,0.8-1,1.4l-0.1,0l0.1-0.1c1.9-0.9,3.5-2.2,5.1-3.6C66.7,52.1,67.4,51.6,67.3,50.8
	c0.1,0,0.2,0,0.2-0.2c0,0-0.1,0-0.1,0C67.4,50.7,67.3,50.8,67.3,50.8z M215.1,83.4c-1.1,0.1-1.9,0.8-2.7,1.4c-3,2-5.9,4.1-8.8,6.2
	c-2.7,2-5.8,3.4-8.2,5.8c-1.2,1.1-2.4,2.2-3.6,3.2c-5.5,4.5-8.5,10.6-10.8,17.1c-0.9,2.5,0,4.8,0.7,7.2c0.8,2.7,2.9,4,5.4,4.7
	c1.7,0.4,3.4,0.4,5.2,0.4c0.4,0,0.8,0,1.2-0.2c0.3-0.1,0.7-0.4,0.5-0.8c-0.2-0.3-0.5-0.2-0.8-0.1c-0.9,0.2-1.7,0.8-2.7,0.5
	c0.4-0.6,0.9-0.6,1.4-0.8c3.3-1.3,6.2-3.1,8.1-6.2c0.8-1.3,1.8-2.6,2.6-3.8c0.4-0.6,0.8-1,1.5-1.2c1.1-0.4,0-1.3,0.4-1.9
	c0.1-0.1,0.3-0.2,0.4-0.3c0.3-0.2,0.4-0.6,0.4-0.9c0.2-2.1,1.1-3.9,2.3-5.6c0.5-0.8,0.9-1.5,1-2.4c0.2-1,0.5-2,0.8-2.9
	c1.5-4.8,3.1-9.6,4.6-14.4c0.5-1.5,1.2-3,1.3-4.6c0.1-0.1,0.2-0.2,0.2-0.2C215.4,83.2,215.3,83.3,215.1,83.4z M12.9,56.5
	c1,0.1,1.6-0.3,2.1-0.6c1.9-1.1,3.7-2.2,5.5-3.5C28.8,46.2,36.1,39,42,30.5c3.9-5.6,7.3-11.6,9.4-18.1c0.2-0.5,0.3-0.9,0.4-1.4
	c0.1-0.4-0.1-0.9-0.5-1.1c-0.5-0.3-0.7,0.2-1,0.4c-1.2,1.1-2.6,2.1-4.1,2.9c-4.8,2.6-8.8,6-12.4,10c-2.4,2.7-4.5,5.6-6.8,8.4
	c-0.8,1-1.8,1.9-2.5,3c-3.7,5.7-7.2,11.6-9.8,17.9C14.2,53.8,13.6,55.1,12.9,56.5z M79.6,72.3c0,0.1,0,0.6,0.1,1.1
	c0.3,1.9,0.8,2.1,2.5,1.3c0.4-0.2,0.7-0.4,1-0.7c1.1-0.8,2.1-1.8,3-2.8c3.9-4.4,7-9.2,10.2-14.1c0.3-0.5,0.6-1.1,0.3-1.7
	c-0.7-1.4-1.4-2.9-2.5-4.1c-1.1-1.1-1.7-1.1-2.6,0.2c-0.8,1.2-1.8,2.2-2.8,3.2c-4,4.1-6.8,8.9-8.6,14.4C79.8,70,79.6,70.9,79.6,72.3
	z M11.4,78.3c0.4,0.2,0.8-0.2,1.1-0.3c3.8-1.8,7.6-3.5,11.6-4.9c5-1.8,4-1.2,6.1-6c0.6-1.5,0.6-3,0.4-4.6c-0.1-1.2-0.3-1.3-1.5-0.9
	c-1.8,0.5-3.5,1.3-5,2.5C19,67.8,15,72.7,11.4,77.8C11.3,78,11.2,78.1,11.4,78.3z M25.4,75.5c-0.5,0-0.7,0-0.9,0
	c-4.9,1.1-9.3,3.3-13.4,6.2c-1.1,0.8-1.3,2-0.8,3.3c0.5,1.1,1.1,1.3,2.7,0.9c1.9-0.5,3.6-1.4,5.2-2.5C21.1,81.4,23.4,78.8,25.4,75.5
	z M210.3,108.6c0.5,0,0.6-0.4,0.8-0.7c0.8-1.3,1.1-2.8,1.6-4.2c0.6-1.6,0.9-3.4,2.3-4.6c0.2-0.2,0.4-0.5,0.1-0.8
	c-0.2-0.2-0.3-0.4-0.1-0.6c1.2-0.9,1.4-2.1,1.5-3.4c0-0.5,0.2-1,0.4-1.5c0.3-1,0.5-1.9,0.5-2.9c1.5-0.5,0.3-1.8,0.8-2.6
	c0.2-0.4-0.4-0.7-0.8-0.8c-0.3-0.1-0.6,0-0.7,0.4c-0.1,1.5-0.9,2.8-1.3,4.2c-1.4,5.1-2.4,10.4-4.9,15.1
	C210.1,107,210,107.8,210.3,108.6z M164.1,70.5c0,0.5,0,1.1,0,1.7c0,0.3-0.1,0.6,0.3,0.8c0.4,0.1,0.6-0.2,0.8-0.5
	c0.4-0.7,0.6-1.5,0.9-2.3c0.4-1.5,0.7-3,0.6-4.6c0-0.2,0-0.5-0.3-0.6c-0.3-0.1-0.5,0.1-0.6,0.3c-0.3,0.3-0.5,0.7-0.5,1.1
	c0,0.4,0,0.9-0.2,1C163.8,68.2,164.3,69.4,164.1,70.5z M174.5,46.4c1.1-0.9,1.4-2.2,1.6-3.5C175.1,43.8,174.7,45,174.5,46.4z
	 M171.2,54c-0.6,0.6-0.8,1-0.6,1.7C171.1,55.3,171.3,54.8,171.2,54z M173,49.9c-0.6,0.5-0.6,1-0.3,1.6C172.8,51,173.3,50.6,173,49.9
	z M210.5,109.9c0.1-0.2-0.1-0.3-0.2-0.4c-0.3-0.1-0.4,0.1-0.4,0.3c0,0.2,0.1,0.3,0.3,0.3C210.4,110.2,210.5,110.1,210.5,109.9z
	 M167.4,64c0.2,0,0.3-0.1,0.3-0.3c0-0.1-0.1-0.2-0.2-0.2c-0.2,0-0.3,0.1-0.4,0.3C167.2,63.8,167.3,63.9,167.4,64z M219.2,81.1
	c-0.1,0.1-0.2,0.1-0.3,0.2c0,0.1,0,0.3,0.1,0.3c0.2,0,0.3-0.1,0.4-0.3C219.4,81.2,219.3,81.2,219.2,81.1z M196.4,127
	c-0.1-0.1-0.1-0.2-0.2-0.2c-0.1,0-0.2,0.1-0.3,0.1c0.1,0.1,0.1,0.2,0.2,0.2C196.2,127.1,196.3,127,196.4,127z M195.4,127.3
	c0,0-0.1-0.1-0.1-0.1c0,0-0.1,0.1-0.1,0.1c0.1,0,0.1,0.1,0.2,0.1C195.4,127.3,195.4,127.3,195.4,127.3z M194.7,127.7
	c0,0-0.1-0.1-0.1-0.1c0,0-0.1,0.1-0.1,0.1c0,0,0.1,0.1,0.1,0.1C194.6,127.8,194.7,127.7,194.7,127.7z"/>
<path class="st1" d="M103.2,110c-0.4,2.2-0.9,4.3-2.3,6.1c-0.6,0.8-0.6,1.3,0.2,1.9c0.8,0.7,1.6,1.4,2.3,2.5c-1.8,0.1-3.3,0.5-4.5-1
	c-0.5-0.6-1-0.5-1.6-0.1c-1.9,1.3-4.1,1.7-6.3,1.5c-2.6-0.2-4.9-1.7-5.5-3.9c-0.7-2.5,0-4.6,1.9-6.3c0.5-0.5,1.4-0.6,1.5-1.4
	c0.1-0.6-0.5-1.2-0.8-1.8c-1.5-3.4,0.7-7,4.4-7.2c1.4-0.1,2.7,0,3.9,1c1.9,1.6,2.2,4.2,0.6,6.1c-0.7,0.9-1.7,1.6-2.7,2.1
	c-0.8,0.4-0.7,0.9-0.2,1.4c1.4,1.4,2.9,2.7,4.3,4.1c0.8-0.8,1.1-2.1,1.5-3.3C100.7,109.6,100.7,109.6,103.2,110z M92.6,118.9
	c1.1,0.1,2.2-0.2,3.3-0.9c0.9-0.6,0.9-0.8,0.2-1.5c-1.5-1.6-3.1-3.1-4.5-4.6c-0.6-0.7-1.1-0.5-1.7,0c-1.4,1.1-2,2.9-1.5,4.5
	C88.9,118,90.4,118.9,92.6,118.9z M95.4,104.8c0-1.2-0.7-2.1-1.8-2.4c-1.1-0.3-2.2,0.2-2.7,1.2c-0.7,1.3-0.3,3.7,0.8,4.6
	c0.2,0.2,0.4,0.2,0.7,0.2C93.8,108.2,95.5,106.2,95.4,104.8z"/>
<path class="st1" d="M139.6,121c-4.9,0.3-9.8-3.4-9.9-10c0-6.9,5.4-10.7,10.3-10.5c5.9,0.2,10,4.2,9.9,10.2
	C149.9,117.9,144.5,121.3,139.6,121z M132.8,110.8c-0.1,2.2,0.5,4.1,1.9,5.8c2.4,2.8,6.8,3.1,9.5,0.6c2.9-2.7,3.4-8.2,1-11.6
	c-1.5-2.1-3.6-3.1-6.2-2.9c-2.7,0.3-4.6,1.9-5.6,4.4C133,108.3,132.7,109.6,132.8,110.8z"/>
<path class="st1" d="M135.1,19.9c0-2.9,0-5.8,0-8.6c0-1.4,0-1.4,1.4-1.4c1.4,0,1.5,0,1.5,1.5c0,1.8,0,3.6,0,5.4c0,1.3,0,1.3,1.3,1.4
	c2.3,0,4.7,0.1,7,0c1.3,0,1.3,0,1.3-1.3c0-1.9,0-3.7,0-5.6c0-0.5-0.2-1.1,0.4-1.3c0.7-0.2,1.4-0.2,2.1,0c0.3,0.1,0.3,0.5,0.3,0.8
	c0,0.7,0,1.3,0,2c0,5.2,0,10.4-0.1,15.7c0,0.5,0.2,1.1-0.3,1.3c-0.6,0.3-1.4,0.2-2.1,0.1c-0.5-0.1-0.4-0.7-0.4-1.1
	c0-1.6,0-3.1,0-4.7c0-0.7,0-1.4,0-2.2c0-0.8-0.2-1.2-1.1-1.2c-2.5-0.1-5-0.1-7.6-0.1c-0.9,0-1.1,0.4-1.1,1.2c0,2.2,0,4.3,0,6.5
	c0,1.6-0.1,1.7-1.7,1.6c-0.9,0-1.1-0.4-1.1-1.2C135.1,25.8,135.1,22.8,135.1,19.9C135.1,19.9,135.1,19.9,135.1,19.9z"/>
<path class="st1" d="M117.1,29.7c-0.2,0.1-0.4,0.1-0.6,0.1c-2.2,0.1-2.2,0.1-2.9-2c-0.4-1.1-0.8-2.3-1.2-3.4c-0.2-0.7-0.6-1-1.3-0.9
	c-1.7,0-3.4,0-5,0c-0.8,0-1.2,0.4-1.4,1.1c-0.4,1.4-0.9,2.7-1.4,4.1c-0.4,1-1.8,1.5-2.7,1.1c-0.3-0.1-0.4-0.3-0.3-0.6
	c0.1-0.4,0.2-0.8,0.4-1.2c1.9-5.6,3.9-11.2,5.9-16.8c0.2-0.5,0.2-1.2,0.8-1.3c1-0.2,2-0.2,3,0.1c0.2,0.1,0.3,0.5,0.4,0.7
	c2.1,6.2,4.3,12.5,6.4,18.7C117.2,29.4,117.2,29.4,117.1,29.7z M111.6,21.2c-1-2.9-1.9-5.6-2.9-8.7c-1,3.1-1.9,5.9-2.8,8.7
	C107.8,21.2,109.6,21.2,111.6,21.2z"/>
<path class="st1" d="M123.1,121c-1.8,0-3.4-0.1-4.9-0.6c-7.9-2.8-8-13.1-3-17.2c2-1.7,4.3-2.6,6.9-2.6c1.9-0.1,3.7-0.1,5.5,0.5
	c0.4,0.1,0.9,0.2,0.8,0.8c-0.1,0.6-0.2,1.2-0.6,1.6c-0.2,0.2-0.6,0-0.8-0.1c-1.6-0.6-3.3-0.5-5-0.4c-4.3,0.3-7.1,3.5-7.1,8
	c0,4.3,2.7,7.3,6.9,7.7c1.7,0.1,3.3,0.1,5-0.3c1.1-0.3,1.1-0.2,1.5,0.9c0.3,1-0.2,1.2-0.9,1.4C125.9,120.9,124.4,121.1,123.1,121z"
	/>
<path class="st1" d="M124.5,30.2c-1.5-0.1-3-0.3-4.4-0.9c-1-0.5-1-0.8-0.5-2c0.4-0.9,0.9-0.5,1.4-0.3c1.4,0.6,2.9,0.9,4.4,0.8
	c1.8-0.2,3.1-1.2,3.4-2.7c0.2-1.3-0.5-2.7-2-3.5c-0.7-0.4-1.4-0.7-2.1-0.9c-0.8-0.3-1.7-0.7-2.4-1.2c-1.8-1.1-2.8-2.7-2.6-4.8
	c0.2-2.2,1.4-3.7,3.3-4.5c2.4-1,4.8-0.8,7.2,0c1,0.3,0.6,1,0.4,1.6c-0.2,0.6-0.5,1.1-1.3,0.7c-1.3-0.6-2.7-0.7-4-0.5
	c-1.9,0.3-2.9,1.7-2.6,3.4c0.2,0.8,0.6,1.4,1.3,1.8c0.8,0.4,1.6,0.8,2.4,1.2c1.1,0.4,2.1,0.9,3,1.5c1.7,1.3,2.5,3,2.2,5.2
	c-0.3,2.1-1.5,3.6-3.4,4.5C127,30,125.8,30.3,124.5,30.2z"/>
<path class="st1" d="M87.3,19.6c0-2.9,0-5.8,0-8.6c0-0.4-0.2-1.1,0.4-1.2c0.7-0.2,1.4-0.2,2.1,0.1c0.4,0.2,0.3,0.8,0.3,1.2
	c0,3.1,0,6.1,0,9.2c0,1.9,0,3.8,0,5.8c0,1.4,0,1.4,1.4,1.4c2,0,4.1,0.1,6.1,0c0.9,0,1.1,0.4,1.1,1.2c0,1.1-0.1,1.3-1.2,1.3
	c-3.1,0-6.1,0-9.2,0c-1,0-1.2-0.4-1.2-1.3C87.2,25.5,87.2,22.6,87.3,19.6C87.2,19.6,87.2,19.6,87.3,19.6z"/>
<path class="st0" d="M67.3,50.8c0.1,0.9-0.5,1.3-1,1.8c-1.5,1.4-3.2,2.7-5.1,3.6l0,0c0.1-0.6,0.6-1,1-1.4
	C63.8,53.3,65.4,51.9,67.3,50.8L67.3,50.8z"/>
<path class="st0" d="M67.3,50.8c0,0,0-0.1,0.1-0.1c0,0,0.1,0,0.1,0C67.5,50.8,67.4,50.8,67.3,50.8C67.3,50.8,67.3,50.8,67.3,50.8z"
	/>
<path class="st0" d="M47.5,64.1c0-0.1,0.1-0.2,0.2-0.2C47.7,64,47.7,64.1,47.5,64.1C47.5,64.1,47.5,64.1,47.5,64.1z"/>
<path class="st0" d="M222,59c0.1-0.1,0.2-0.3,0.4-0.1c0.1,0.1,0,0.3-0.1,0.4C222.2,59.1,222.1,59.1,222,59z"/>
<polygon class="st0" points="61.2,56.2 61.1,56.3 61.2,56.2 "/>
</svg>
