<?xml version="1.0" encoding="utf-8"?>
<!-- Generator: Adobe Illustrator 19.0.0, SVG Export Plug-In . SVG Version: 6.00 Build 0)  -->
<svg version="1.1" id="_x26__Co" xmlns="http://www.w3.org/2000/svg" xmlns:xlink="http://www.w3.org/1999/xlink" x="0px" y="0px"
	 viewBox="0 0 758.3 161.9" style="enable-background:new 0 0 758.3 161.9;" xml:space="preserve">
<style type="text/css">
	.st0{fill-rule:evenodd;clip-rule:evenodd;}
	.st1{fill:none;}
	.st2{fill:none;stroke:#000000;stroke-miterlimit:10;}
	.st3{fill:none;stroke:#000000;stroke-width:2;stroke-miterlimit:10;}
</style>
<path d="M66.2,60v24.1H7.9v-0.6h9.7V6.2H7.9V5.6h29.5v0.6h-9.6v77.4h19.1c12.3,0,18.2-10.8,18.8-23.6H66.2z"/>
<path d="M205.7,62.9c0,13.2-10.2,22.4-27,22.4c-8.8,0-16-4.7-20.8-4.7c-2.8,0-4,2.1-4.8,4h-0.5v-25h0.5
	c2.9,12.6,10.4,25.1,25.6,25.1c11.6,0,19-5.8,19-16.8s-10.4-14.2-23.2-20.2c-14.3-6.5-20.6-11.8-20.6-23.1
	c0-11.6,10.2-20.1,23.2-20.1c9.3,0,12.5,4.6,16.7,4.6c2.8,0,3.4-1.1,4.3-3h0.5v19.7h-0.4c-3-12.6-9.7-20.8-21.1-20.8
	c-11,0-16.1,6.6-16.1,13.6c0,6.2,2.8,11.8,18,18C200.9,45.7,205.7,52.3,205.7,62.9z"/>
<path d="M288.4,6.2v77.4h9.7v0.6h-29.6v-0.6h9.7V44.1h-36.9v39.5h9.7v0.6h-29.5v-0.6h9.6V6.2h-9.6V5.6H251v0.6h-9.7v37.4h36.9V6.2
	h-9.7V5.6h29.6v0.6H288.4z"/>
<path d="M387.6,62.5c0,12.7-9.6,21.7-28.8,21.7H329v-0.6h9.7V6.2H329V5.6h26.6c16.7,0,27.1,4.7,27.1,18.9c0,11-8.3,16.3-20.5,17.4
	C377.2,42.8,387.6,49.3,387.6,62.5z M348.9,6.2v35.7h7.2c12.7,0,16.4-8.3,16.4-17.4c0-10.4-2.7-18.3-16.9-18.3H348.9z M376.3,62.5
	c0-10.6-3.6-20.2-18-20.2h-9.5v41.3h9.5C375.2,83.6,376.3,71.6,376.3,62.5z"/>
<path d="M462.8,60v24.1h-58.3v-0.6h9.6V6.2h-9.6V5.6h54.2v19.8h-0.5c-1-11.4-6.5-19.2-18.8-19.2h-15.1v36.2h6.4
	c11,0,14.7-6.1,15.2-16h0.5v32.5h-0.5C445.4,49,441.6,43,430.7,43h-6.4v40.6h19.2c12.3,0,18.1-10.8,18.7-23.6H462.8z"/>
<path d="M603.9,5.9c-3.2,0.4-6.3,0.5-9.5,0.3c-0.1,11.6-0.2,23.2,0,34.8c0.1,6.8,0.3,13.7-0.3,20.5c-0.6,6.3-1.8,12.6-6.4,17.4
	c-7.8,8-20.9,8.1-30.8,4.7c-8.2-2.9-12.9-10.4-14-18.8c-0.3-2-0.4-4-0.4-5.9c0,0,0-52.5,0-52.5h-9.7V5.6h29.5v0.6h-9.6v52.5
	c0,16.7,5,25.9,18,25.9c6.3,0,12.7-1.8,16.9-6.6c3.6-4.1,5.2-9.5,5.8-14.8c0.5-3.8,0.5-7.7,0.5-11.6c-0.1-15.1-0.2-30.3-0.2-45.4
	c-3.2,0.2-6.4,0.1-9.6-0.4c6.7-0.4,13.4-0.4,20.1,0C604.1,5.9,604,5.9,603.9,5.9z"/>
<path d="M682,5.6v20.9h-0.5c-1.3-11.6-8.1-20.3-20.8-20.3H655v77.4h9.7v0.6h-29.6v-0.6h9.7V6.2h-5.6c-12.8,0-19.5,8.8-20.8,20.3
	h-0.5V5.6H682z"/>
<path d="M757.7,5.6v0.6h-8.3l-20.6,41v36.5h9.7v0.6H709v-0.6h9.7v-33l-24-44.4h-8.5V5.6h29.6v0.6h-9.1l21.9,40.6l20.4-40.6h-9.2V5.6
	H757.7z"/>
<g id="Shape_1">
	<g>
		<rect x="4.8" y="134.2" class="st0" width="231.3" height="2.7"/>
	</g>
</g>
<g id="Shape_1_copy">
	<g>
		<rect x="529" y="134.2" class="st0" width="224.8" height="2.7"/>
	</g>
</g>
<g>
	<path d="M323.2,114c-5,3.1-14.1,6.6-28.2,8.5c-5.5,6-10.5,12.3-13.1,18.9c9.7-2.9,20.8-7.7,30.5-9.8c0.9-0.3,1.2,0.2,0.3,0.4
		c-9.9,2.1-21.3,7.1-31.1,9.9c-1.1,3-5.8,15.8,0.1,18c0.9,0.3,0.5,0.7-0.5,0.4c-6.2-2.2-2.1-14.8-0.9-18
		c-54.7,15.7-32.8-14.1,12.3-20.1c7.3-7.9,16.7-13.8,27.5-13.8C328.2,108.5,327.3,111.4,323.2,114z M292.2,122.8
		c-39.9,5.7-63.2,33.9-11.7,19C283.1,135.3,286.9,128.8,292.2,122.8z M320.2,109c-10.2,0-17.6,5.4-24.6,13
		c13.5-1.9,22.2-5.3,26.9-8.3C326.1,111.4,327.3,109,320.2,109z"/>
	<path d="M451.1,105.7c-0.3,0.6-0.9,1.2-2,1.9c-2.3,1.2-6.7,2.3-12.9,2.2c-3.8,0-7.3-0.4-10.9-0.9c-1.8-0.2-3.8-0.5-5.8-0.7
		c-25.4,9.5-82.3,49.8-40.5,49.8c21.1,0,56-16.7,72-25.1l0.6,0.2c-17.2,9.2-51,25.7-73.2,25.7c-45.1,0,9.4-39,40.1-50.7
		c-10.9-1-26-0.7-55.9,7.8c-0.9,0.3-1.2-0.1-0.2-0.4c30.8-8.7,46-8.9,57.1-7.8c7.1-2.6,14.3-4.5,20.3-5.1c5.8-0.5,9.3,0.2,10.6,1.3
		C451.1,104.4,451.2,105,451.1,105.7z M449.7,104.2c-1.4-1-4.6-1.6-10-1.1c-5.8,0.6-12.3,2.2-19.1,4.8l5,0.6c3.6,0.5,7.1,0.9,10.9,1
		c5.8,0,9.9-0.9,12-2.1c0.9-0.5,1.5-1.1,1.7-1.6C450.3,105.2,450.2,104.6,449.7,104.2z"/>
	<path d="M510.6,133.1c-7.1,1.9-29.3,2.7-36.3,2.8c-0.9,3.2-6.5,6.7-13.1,6.7c-13.1,0-4.1-10.3,5.5-13.1c2.3-0.6,4.2,0.1,1.2,1.1
		c-8.7,2.8-17.5,11.6-6.5,11.6c6.1,0,10.9-3.2,12-6.3c-0.9,0-2.6,0.1-4.2,0c-7.4-0.3-5-3.6,0.9-3.6c3.3,0,4.6,1.6,4.2,3.1
		c6.8-0.1,29-0.8,36.1-2.7L510.6,133.1z M469.9,132.8c-5,0-6.7,2.4-0.6,2.6c1.7,0.1,3.3,0,4.3,0
		C473.5,134.1,472.6,132.8,469.9,132.8z"/>
</g>
<g>
	<path d="M142.4,83.6v0.6h-29.5v-0.6h9.6l-9.2-26.1H86.6l-9.1,26.1h7.6v0.6H70v-0.6h6.7l27.5-78.8h0.7l27.8,78.8H142.4z M113,56.7
		L99.8,19.5L86.9,56.7H113z"/>
	<path class="st1" d="M113.2,57.5"/>
	<path class="st1" d="M86.4,57.5"/>
	<line class="st2" x1="86.6" y1="57.5" x2="114.7" y2="57.5"/>
	<line class="st3" x1="100.7" y1="19.5" x2="78.4" y2="83.6"/>
	<rect x="77.6" y="82.9" class="st2" width="0.9" height="0.6"/>
	<line class="st3" x1="87.5" y1="57.5" x2="116.2" y2="57.5"/>
</g>
<g>
	<path d="M539.9,84v0.6h-29.5V84h9.6l-9.2-26.1h-26.7L475,84h7.6v0.6h-15.2V84h6.7l27.5-78.8h0.7L530.2,84H539.9z M510.5,57.1
		l-13.2-37.2l-12.9,37.2H510.5z"/>
	<path class="st1" d="M510.7,57.9"/>
	<path class="st1" d="M483.9,57.9"/>
	<line class="st2" x1="484.1" y1="57.9" x2="512.2" y2="57.9"/>
	<line class="st3" x1="498.1" y1="19.9" x2="475.9" y2="84"/>
	<rect x="475.1" y="83.3" class="st2" width="0.9" height="0.6"/>
	<line class="st3" x1="484.9" y1="57.9" x2="513.6" y2="57.9"/>
</g>
<line class="st3" x1="238.2" y1="43.8" x2="281.6" y2="43.8"/>
<path class="st3" d="M593.9,6.2c0,4.7,0,9.4,0,14.1c0,8.7,0,17.4,0,26.1c0,5.7,0.2,11.5-0.5,17.1c-0.6,5-1.9,10.3-5.4,14.1
	c-2.7,3-7,5.2-10.8,6.2c-6.5,1.9-15.4-0.2-17.9-1.2"/>
<line class="st3" x1="727.8" y1="46.9" x2="748.2" y2="6.1"/>
<polygon class="st2" points="748.1,6.3 747.8,6.7 748.4,7 748.6,6.5 "/>
</svg>