<?xml version="1.0" encoding="utf-8"?>
<!-- Generator: Adobe Illustrator 19.0.0, SVG Export Plug-In . SVG Version: 6.00 Build 0)  -->
<svg version="1.1" id="Layer_1" xmlns="http://www.w3.org/2000/svg" xmlns:xlink="http://www.w3.org/1999/xlink" x="0px" y="0px"
	 viewBox="0 0 159.6 90" style="enable-background:new 0 0 159.6 90;" xml:space="preserve">
<style type="text/css">
	.st0{fill:#FFFFFF;}
	.st1{fill:#FFFFFF;stroke:#FFFFFF;stroke-width:2;stroke-miterlimit:10;}
</style>
<path class="st0" d="M29.4,63.1c0-0.1,0.1-0.2,0.2-0.2C29.6,63,29.6,63.1,29.4,63.1C29.4,63.1,29.4,63.1,29.4,63.1z"/>
<path id="XMLID_69_" class="st0" d="M6.7,30.9h12.1c5.1,0,7.7,3.1,7.7,6.8c0,1.8-0.6,4.2-3.7,5.6c1.8,0.7,5,2,5,6.6
	c0,4.3-3.2,8-9.3,8H6.7V30.9z M10.4,42.4h6.7c3.5,0,5.7-1.1,5.7-4.4c0-2.5-1.6-3.9-5.7-3.9h-6.7V42.4z M10.4,54.8h7.9
	c3.9,0,5.8-1.9,5.8-4.9c0-3.8-3.4-4.5-6.4-4.5h-7.3V54.8z"/>
<path id="XMLID_73_" class="st0" d="M52.8,57.9H32.6v-27h20v3.2H36.3v8.3h15v3.2h-15v9h16.5V57.9z"/>
<path id="XMLID_75_" class="st0" d="M62,50.1l-2.9,7.8h-3.8l10.3-27h4.2l9.9,27h-4L73,50.1H62z M71.6,46.8l-4-11.9h-0.1l-4.4,11.9
	H71.6z"/>
<path id="XMLID_78_" class="st0" d="M103.6,30.9v17.5c0,5.5-3.6,10.2-11.5,10.2c-7.7,0-10.9-4.7-10.9-9.7v-18h3.8v17
	c0,5.9,3.8,7.5,7.2,7.5c3.5,0,7.5-1.5,7.5-7.4v-17H103.6z"/>
<path id="XMLID_80_" class="st0" d="M106.4,30.9h22.2v3.2h-9.3v23.7h-3.7V34.2h-9.3V30.9z"/>
<path id="XMLID_82_" class="st0" d="M143.7,57.9H140V47.1l-10.3-16.1h4.3l7.9,13l7.9-13h4.3l-10.3,16.1V57.9z"/>
<g id="XMLID_5_">
	<path id="XMLID_55_" class="st0" d="M29.2,87h-4.5l-2.6-3.1c-1.9,2.1-4.1,3.6-8.2,3.6c-7,0-8.3-5-8.3-7.1c0-3.7,1.1-5.7,6.4-8.5
		c-2-2.4-3-3.6-3-6c0-3.1,2.4-6,6.7-6c4.4,0,6.3,2.9,6.3,5.6c0,3.8-3,5.7-5.1,7.1l5.2,5.9c0.6-1.7,0.8-2.2,1.1-4.2h3.3
		c-0.2,1.8-0.8,4.3-2.3,6.9L29.2,87z M13.8,74.2c-3,1.8-4.8,3.1-4.8,6c0,3.4,3.5,4.5,5.1,4.5c2.5,0,4.6-1.1,6.1-3L13.8,74.2z
		 M18.6,65.8c0-2.4-1.9-3-3-3c-2.9,0-3.3,2-3.3,2.9c0,1.8,1.7,3.7,2.8,4.7C16.6,69.5,18.6,68.1,18.6,65.8z"/>
	<path id="XMLID_59_" class="st0" d="M52.9,68.1c-1.1-4.7-5.2-5.6-7.9-5.6c-5.1,0-9.3,3.6-9.3,10.7c0,6.3,2.4,11.2,9.4,11.2
		c2.5,0,6.8-1.1,8.1-7.4h3.7c-1.6,10.2-10.2,10.6-12.4,10.6c-6.4,0-12.7-4-12.7-14.3c0-8.3,5-14,13.2-14c7.3,0,11.1,4.3,11.6,8.8
		H52.9z"/>
	<path id="XMLID_61_" class="st0" d="M73.8,87.7C63.3,87.7,60,79.3,60,73.5c0-5.8,3.2-14.2,13.8-14.2c10.6,0,13.8,8.4,13.8,14.2
		C87.6,79.3,84.4,87.7,73.8,87.7z M73.8,62.5c-6.1,0-9.8,4.6-9.8,11c0,6.3,3.7,11,9.8,11c6.1,0,9.8-4.6,9.8-11
		C83.6,67.1,79.9,62.5,73.8,62.5z"/>
</g>
<g id="XMLID_3_">
	<path id="XMLID_46_" class="st0" d="M10.6,25.7H25V29H6.8V2h3.8V25.7z"/>
	<path id="XMLID_48_" class="st0" d="M33.1,21.1l-3,7.8h-3.9L36.9,2h4.3l10.2,27h-4.2l-2.8-7.8H33.1z M43.1,17.9L38.9,6h-0.1
		l-4.5,11.9H43.1z"/>
	<path id="XMLID_51_" class="st0" d="M72,9.9c-0.2-4.2-3.8-5.5-7-5.5c-2.4,0-6.5,0.6-6.5,4.7c0,2.3,1.7,3,3.3,3.4l8.1,1.8
		c3.7,0.8,6.4,2.9,6.4,7.2c0,6.4-6.2,8.1-11.1,8.1c-5.2,0-7.3-1.5-8.5-2.6c-2.4-2.1-2.9-4.3-2.9-6.8h3.6c0,4.9,4.2,6.3,7.8,6.3
		c2.8,0,7.4-0.7,7.4-4.5c0-2.8-1.4-3.7-6-4.8L60.8,16c-1.9-0.4-6-1.7-6-6.3c0-4.2,2.9-8.3,9.7-8.3c9.9,0,10.9,5.6,11,8.6H72z"/>
	<path id="XMLID_53_" class="st0" d="M99.8,2h3.8v27h-3.8V16.4H85.1V29h-3.8V2h3.8v11.2h14.8V2z"/>
</g>
<line id="XMLID_4_" class="st1" x1="2.2" y1="87" x2="2.2" y2="2"/>
</svg>
