<?xml version="1.0" encoding="UTF-8"?>
<svg width="4201px" height="1792px" viewBox="0 0 4201 1792" version="1.1" xmlns="http://www.w3.org/2000/svg" xmlns:xlink="http://www.w3.org/1999/xlink">
    <!-- Generator: Sketch 60 (88103) - https://sketch.com -->
    <title>04 Acceptance mark/Horizontal/Plate/Black and White/Light plate/Swish_Acceptance_Mark_Horizontal_BW_Light-Plate_SVG</title>
    <desc>Created with Sketch.</desc>
    <g id="04-Acceptance-mark/Horizontal/Plate/Black-and-White/Light-plate/Swish_Acceptance_Mark_Horizontal_BW_Light-Plate" stroke="none" stroke-width="1" fill="none" fill-rule="evenodd">
        <path d="M194.855275,-7.87238634e-15 L4006.14472,7.87238634e-15 C4073.90015,-4.57408317e-15 4098.4699,7.05474645 4123.24027,20.3020855 C4148.01064,33.5494245 4167.45058,52.9893562 4180.69791,77.7597265 C4193.94525,102.530097 4201,127.099851 4201,194.855275 L4201,1597.14472 C4201,1664.90015 4193.94525,1689.4699 4180.69791,1714.24027 C4167.45058,1739.01064 4148.01064,1758.45058 4123.24027,1771.69791 C4098.4699,1784.94525 4073.90015,1792 4006.14472,1792 L194.855275,1792 C127.099851,1792 102.530097,1784.94525 77.7597265,1771.69791 C52.9893562,1758.45058 33.5494245,1739.01064 20.3020855,1714.24027 C7.05474645,1689.4699 3.04938878e-15,1664.90015 -5.24825756e-15,1597.14472 L5.24825756e-15,194.855275 C-3.04938878e-15,127.099851 7.05474645,102.530097 20.3020855,77.7597265 C33.5494245,52.9893562 52.9893562,33.5494245 77.7597265,20.3020855 C102.530097,7.05474645 127.099851,4.57408317e-15 194.855275,-7.87238634e-15 Z" id="Background" fill="#FFFFFF"></path>
        <g id="Logotype" transform="translate(420.000000, 384.000000)" fill="#000000">
            <g id="Wordmark/Swish" transform="translate(1292.000000, 192.000000)" fill-rule="nonzero">
                <path d="M1902.82835,92.2775082 C1902.82835,80.5006388 1905.0005,69.4599895 1909.34488,59.1552288 C1913.68926,48.8504681 1919.58511,39.8629921 1927.03262,32.1925312 C1934.48013,24.5220702 1943.20754,18.4787674 1953.21513,14.0624414 C1963.22272,9.64611542 1973.96713,7.43798555 1985.44871,7.43798555 C1997.08544,7.43798555 2007.98501,9.64611542 2018.14775,14.0624414 C2028.31049,18.4787674 2037.15427,24.5220702 2044.67936,32.1925312 C2052.20444,39.8629921 2058.13909,48.8504681 2062.48346,59.1552288 C2066.82784,69.4599895 2069,80.5006388 2069,92.2775082 C2069,104.054378 2066.82784,115.095027 2062.48346,125.399788 C2058.13909,135.704548 2052.20444,144.692024 2044.67936,152.362485 C2037.15427,160.032946 2028.31049,166.076249 2018.14775,170.492575 C2007.98501,174.908901 1997.08544,177.117031 1985.44871,177.117031 C1973.96713,177.117031 1963.22272,174.908901 1953.21513,170.492575 C1943.20754,166.076249 1934.48013,160.032946 1927.03262,152.362485 C1919.58511,144.692024 1913.68926,135.704548 1909.34488,125.399788 C1905.0005,115.095027 1902.82835,104.054378 1902.82835,92.2775082 Z M1919.81789,92.2775082 C1919.81789,102.039913 1921.48579,111.104867 1924.82165,119.472643 C1928.15752,127.840377 1932.77335,135.123373 1938.66929,141.321725 C1944.56523,147.520078 1951.50838,152.401207 1959.49893,155.965259 C1967.48949,159.529312 1976.13932,161.311312 1985.44871,161.311312 C1994.91325,161.311312 2003.67945,159.529312 2011.74758,155.965259 C2019.81571,152.401207 2026.83643,147.520078 2032.80996,141.321725 C2038.78348,135.123373 2043.47689,127.840377 2046.89033,119.472643 C2050.30377,111.104867 2052.01046,102.039913 2052.01046,92.2775082 C2052.01046,82.5151033 2050.30377,73.4501491 2046.89033,65.0823735 C2043.47689,56.7145979 2038.78348,49.4316433 2032.80996,43.233291 C2026.83643,37.0349387 2019.81571,32.1538095 2011.74758,28.5897569 C2003.67945,25.0257044 1994.91325,23.2437048 1985.44871,23.2437048 C1976.13932,23.2437048 1967.48949,25.0257044 1959.49893,28.5897569 C1951.50838,32.1538095 1944.56523,37.0349387 1938.66929,43.233291 C1932.77335,49.4316433 1928.15752,56.7145979 1924.82165,65.0823735 C1921.48579,73.4501491 1919.81789,82.5151033 1919.81789,92.2775082 Z M1957.05523,55.7848916 C1957.05523,50.671251 1959.61527,48.114469 1964.73543,48.114469 L1991.03431,48.114469 C1999.41275,48.114469 2006.08438,50.5162945 2011.04938,55.3200175 C2016.01439,60.1237405 2018.49685,66.6319128 2018.49685,74.8447296 C2018.49685,78.2538233 2017.9926,81.2754747 2016.98408,83.9097744 C2015.97557,86.5440742 2014.69555,88.8296823 2013.14398,90.7666674 C2011.59242,92.7036524 2009.88572,94.2919564 2008.02385,95.5316269 C2006.16197,96.7712973 2004.30012,97.623558 2002.43825,98.0884344 L2002.43825,98.5533085 C2002.5934,98.7082673 2002.82613,99.0181803 2003.13645,99.4830567 C2003.44676,99.7929743 2003.75707,100.296583 2004.06738,100.993897 C2004.37769,101.691212 2004.84315,102.504734 2005.46378,103.434486 L2017.56592,126.910628 C2018.96232,129.544928 2019.27263,131.67558 2018.49685,133.302647 C2017.72107,134.929715 2016.01437,135.743236 2013.37672,135.743236 L2010.58391,135.743236 C2006.23954,135.743236 2003.21403,133.883758 2001.50731,130.164747 L1988.00877,101.807427 L1973.5793,101.807427 L1973.5793,128.305251 C1973.5793,133.263932 1971.17441,135.743236 1966.36457,135.743236 L1964.26997,135.743236 C1959.46012,135.743236 1957.05523,133.263932 1957.05523,128.305251 L1957.05523,55.7848916 Z M1987.54331,89.7207006 C1992.04284,89.7207006 1995.53381,88.4035705 1998.01631,85.7692708 C2000.49881,83.1349711 2001.74004,79.4934938 2001.74004,74.8447296 C2001.74004,70.3509241 2000.49881,66.8644033 1998.01631,64.3850624 C1995.53381,61.9057215 1992.12042,60.6660696 1987.77604,60.6660696 L1973.5793,60.6660696 L1973.5793,89.7207006 L1987.54331,89.7207006 Z M1309.14243,145.296399 C1335.45308,145.296399 1357.7652,148.645396 1376.07947,155.34349 C1394.39374,162.041585 1408.70961,168.224348 1419.02751,173.891967 C1427.79773,178.529109 1432.9566,184.711873 1434.50428,192.440443 C1436.05197,200.169014 1434.76225,208.412699 1430.63509,217.171745 L1422.8967,231.083102 C1418.25365,240.357387 1412.32095,245.767305 1405.09842,247.313019 C1397.87589,248.858733 1389.36375,247.570658 1379.56174,243.448753 C1370.79153,239.326849 1360.21584,235.076199 1347.83436,230.696676 C1335.45288,226.317153 1321.00804,224.127424 1304.4994,224.127424 C1287.47487,224.127424 1274.31974,227.476421 1265.03363,234.174515 C1255.74752,240.87261 1251.10454,250.40437 1251.10454,262.770083 C1251.10454,273.590082 1255.8765,282.348997 1265.42055,289.047091 C1274.96461,295.745186 1287.08796,301.670334 1301.79097,306.822715 C1316.49397,311.975095 1332.22853,317.513821 1348.99512,323.439058 C1365.76171,329.364296 1381.49627,336.963943 1396.19927,346.238227 C1410.90228,355.512512 1423.02563,367.362809 1432.56969,381.789474 C1442.11374,396.216139 1446.8857,414.506814 1446.8857,436.66205 C1446.8857,454.180143 1443.40346,470.28109 1436.43888,484.965374 C1429.4743,499.649658 1419.4145,512.401608 1406.25917,523.221607 C1393.10385,534.041605 1377.24032,542.542905 1358.6681,548.725762 C1340.09588,554.908618 1319.46039,558 1296.76102,558 C1264.77553,558 1237.82042,553.362927 1215.89488,544.088643 C1193.96935,534.814358 1177.07404,526.055443 1165.20846,517.811634 C1156.43824,512.659254 1151.53731,506.218875 1150.50552,498.490305 C1149.47373,490.761734 1151.79523,482.518049 1157.47007,473.759003 L1166.75613,459.847645 C1172.43098,451.603837 1178.7506,446.966764 1185.71518,445.936288 C1192.67976,444.905812 1201.06293,446.966733 1210.86493,452.119114 C1220.15104,457.271494 1232.14542,463.067835 1246.84843,469.50831 C1261.55143,475.948786 1278.96263,479.168975 1299.08253,479.168975 C1316.10707,479.168975 1329.52013,475.562363 1339.32214,468.34903 C1349.12414,461.135698 1354.02507,451.346322 1354.02507,438.980609 C1354.02507,428.160611 1349.25311,419.530503 1339.70906,413.090028 C1330.165,406.649552 1318.04165,400.724404 1303.33864,395.314404 C1288.63564,389.904405 1272.90108,384.108064 1256.13449,377.925208 C1239.3679,371.742351 1223.63334,364.013897 1208.93034,354.739612 C1194.22733,345.465328 1182.10398,333.615031 1172.55992,319.188366 C1163.01587,304.761701 1158.24391,286.21341 1158.24391,263.542936 C1158.24391,244.479129 1162.24204,227.476529 1170.23841,212.534626 C1178.23478,197.592723 1189.06841,185.227196 1202.73963,175.437673 C1216.41084,165.64815 1232.40335,158.177311 1250.71762,153.024931 C1269.03189,147.87255 1288.50663,145.296399 1309.14243,145.296399 Z M158.875017,145.296399 C185.18566,145.296399 207.497783,148.645396 225.812054,155.34349 C244.126326,162.041585 258.442196,168.224348 268.760096,173.891967 C277.53031,178.529109 282.689183,184.711873 284.236867,192.440443 C285.784552,200.169014 284.494834,208.412699 280.367675,217.171745 L272.629289,231.083102 C267.986234,240.357387 262.053531,245.767305 254.831001,247.313019 C247.608472,248.858733 239.096332,247.570658 229.294328,243.448753 C220.524114,239.326849 209.948425,235.076199 197.566946,230.696676 C185.185467,226.317153 170.740625,224.127424 154.231986,224.127424 C137.207452,224.127424 124.052327,227.476421 114.766218,234.174515 C105.480108,240.87261 100.837123,250.40437 100.837123,262.770083 C100.837123,273.590082 105.60908,282.348997 115.153137,289.047091 C124.697194,295.745186 136.820544,301.670334 151.523551,306.822715 C166.226557,311.975095 181.961118,317.513821 198.727704,323.439058 C215.494291,329.364296 231.228851,336.963943 245.931858,346.238227 C260.634864,355.512512 272.758214,367.362809 282.302271,381.789474 C291.846328,396.216139 296.618285,414.506814 296.618285,436.66205 C296.618285,454.180143 293.136046,470.28109 286.171464,484.965374 C279.206882,499.649658 269.147081,512.401608 255.991759,523.221607 C242.836437,534.041605 226.972905,542.542905 208.400686,548.725762 C189.828467,554.908618 169.192978,558 146.4936,558 C114.508112,558 87.553004,553.362927 65.6274678,544.088643 C43.7019317,534.814358 26.8066249,526.055443 14.9410407,517.811634 C6.17082621,512.659254 1.26989752,506.218875 0.238107589,498.490305 C-0.793682347,490.761734 1.52781019,482.518049 7.20265483,473.759003 L16.4887178,459.847645 C22.1635625,451.603837 28.483181,446.966764 35.4477631,445.936288 C42.4123452,444.905812 50.7955126,446.966733 60.597517,452.119114 C69.8836265,457.271494 81.8780045,463.067835 96.5810111,469.50831 C111.284018,475.948786 128.695212,479.168975 148.815115,479.168975 C165.839649,479.168975 179.252717,475.562363 189.054722,468.34903 C198.856726,461.135698 203.757655,451.346322 203.757655,438.980609 C203.757655,428.160611 198.985698,419.530503 189.441641,413.090028 C179.897584,406.649552 167.774234,400.724404 153.071228,395.314404 C138.368221,389.904405 122.633661,384.108064 105.867074,377.925208 C89.1004877,371.742351 73.3659272,364.013897 58.6629206,354.739612 C43.959914,345.465328 31.8365641,333.615031 22.2925072,319.188366 C12.7484503,304.761701 7.97649342,286.21341 7.97649342,263.542936 C7.97649342,244.479129 11.9746194,227.476529 19.9709914,212.534626 C27.9673634,197.592723 38.8009953,185.227196 52.4722119,175.437673 C66.1434286,165.64815 82.1359327,158.177311 100.450204,153.024931 C118.764475,147.87255 138.239218,145.296399 158.875017,145.296399 Z M1569.88531,0 C1591.5529,0 1602.38653,10.8198364 1602.38653,32.4598338 L1602.38653,191.66759 C1602.38653,196.81997 1602.25756,201.328236 1601.99961,205.192521 C1601.74166,209.056806 1601.35474,212.534611 1600.83885,215.626039 C1600.32296,219.232705 1600.06501,222.324087 1600.06501,224.900277 L1601.61269,224.900277 C1606.25574,215.625992 1612.83331,206.223039 1621.34557,196.691136 C1629.85784,187.159232 1639.91764,178.529125 1651.52528,170.800554 C1663.13291,163.071984 1676.28804,156.88922 1690.99104,152.252078 C1705.69405,147.614935 1721.55758,145.296399 1738.58212,145.296399 C1782.43319,145.296399 1816.35278,157.146696 1840.34189,180.847645 C1864.33101,204.548595 1876.32539,242.675638 1876.32539,295.229917 L1876.32539,516.265928 C1876.32539,537.905925 1865.49175,548.725762 1843.82416,548.725762 L1810.54911,548.725762 C1788.88152,548.725762 1778.04789,537.905925 1778.04789,516.265928 L1778.04789,315.3241 C1778.04789,291.107912 1773.92079,271.657968 1765.66647,256.973684 C1757.41215,242.2894 1740.90376,234.947368 1716.1408,234.947368 C1699.11626,234.947368 1683.51068,238.296365 1669.32356,244.99446 C1655.13645,251.692554 1643.14207,260.837892 1633.34007,272.430748 C1623.53807,284.023604 1615.92873,297.806014 1610.51183,313.778393 C1605.09494,329.750772 1602.38653,347.010988 1602.38653,365.559557 L1602.38653,516.265928 C1602.38653,537.905925 1591.5529,548.725762 1569.88531,548.725762 L1536.61025,548.725762 C1514.94266,548.725762 1504.10903,537.905925 1504.10903,516.265928 L1504.10903,32.4598338 C1504.10903,10.8198364 1514.94266,0 1536.61025,0 L1569.88531,0 Z M1055.73648,154.570637 C1076.88817,154.570637 1087.46386,165.390474 1087.46386,187.030471 L1087.46386,516.265928 C1087.46386,537.905925 1076.88817,548.725762 1055.73648,548.725762 L1021.68758,548.725762 C1000.53589,548.725762 989.9602,537.905925 989.9602,516.265928 L989.9602,187.030471 C989.9602,165.390474 1000.53589,154.570637 1021.68758,154.570637 L1055.73648,154.570637 Z M399.143169,154.570637 C418.747178,154.570637 430.354641,164.102398 433.965906,183.166205 L497.420669,413.476454 C498.452459,419.144073 499.355262,424.296376 500.129104,428.933518 C500.902947,433.57066 501.80575,437.950118 502.83754,442.072022 C503.869329,446.709164 504.64316,451.088622 505.159055,455.210526 L506.706732,455.210526 C507.222627,451.088622 507.996458,446.709164 509.028248,442.072022 C510.060038,437.950118 510.962841,433.57066 511.736683,428.933518 C512.510526,424.296376 513.671272,419.144073 515.218957,413.476454 L581.769075,183.166205 C585.38034,164.617636 597.245746,155.34349 617.36565,155.34349 L646.771516,155.34349 C665.85963,155.34349 677.725036,164.617636 682.368091,183.166205 L748.14437,413.476454 C749.692055,419.144073 750.852801,424.296376 751.626644,428.933518 C752.400486,433.57066 753.303289,437.950118 754.335079,442.072022 C755.366869,446.709164 756.1407,451.088622 756.656595,455.210526 L758.204272,455.210526 C758.720167,451.088622 759.493998,446.709164 760.525788,442.072022 C761.557578,437.950118 762.46038,433.57066 763.234223,428.933518 C764.008065,424.296376 765.168811,419.144073 766.716496,413.476454 L829.397421,183.166205 C834.040476,164.102398 845.905882,154.570637 864.993996,154.570637 L900.590571,154.570637 C912.456155,154.570637 920.710351,157.919634 925.353406,164.617729 C929.99646,171.315823 930.770291,180.074738 927.674921,190.894737 L826.302067,521.6759 C821.143117,539.709231 809.019768,548.725762 789.931654,548.725762 L738.084469,548.725762 C718.48046,548.725762 706.35711,539.451616 701.714055,520.903047 L642.128484,323.825485 C640.5808,318.673104 639.291081,313.520801 638.259292,308.368421 C637.227502,303.216041 636.195727,298.578968 635.163937,294.457064 C634.132147,289.819921 633.358316,285.440464 632.842421,281.31856 L631.294744,281.31856 C630.262954,285.440464 629.23118,289.819921 628.19939,294.457064 C627.1676,298.578968 626.135826,303.216041 625.104036,308.368421 C624.072246,313.520801 622.782528,318.673104 621.234843,323.825485 L561.649272,520.903047 C557.006217,539.451616 545.140811,548.725762 526.052697,548.725762 L472.657835,548.725762 C454.085616,548.725762 442.22021,539.709231 437.06126,521.6759 L334.914567,190.894737 C331.819197,180.074738 332.722,171.315823 337.623002,164.617729 C342.524004,157.919634 350.649228,154.570637 361.998917,154.570637 L399.143169,154.570637 Z" id="swish®"></path>
            </g>
            <g id="Symbol/Black">
                <g id="Right-Swirl" transform="translate(290.943236, 119.745127)">
                    <path d="M0,853.441561 C205.503313,951.72558 459.122638,903.085081 612.343009,720.521366 C793.950658,504.13568 765.743204,181.546708 549.339536,-5.68434189e-14 L405.478025,171.413604 C574.541924,313.247095 596.579403,565.26898 454.698958,734.32089 C341.568437,869.116254 155.304336,914.123301 0,853.441561" id="Base-Shape" fill-rule="nonzero"></path>
                </g>
                <g id="Left-Swirl">
                    <path d="M732.050167,49.8076252 C526.547853,-48.4763943 272.928528,0.163106219 119.708157,182.726821 C-61.8994915,399.113506 -33.6920378,721.702478 182.710631,903.249186 L326.573141,731.835582 C157.508243,590.002092 135.471763,337.980207 277.352208,168.927297 C390.482729,34.1319335 576.74683,-10.8751143 732.050167,49.8076252" id="Base-shape" fill-rule="nonzero"></path>
                </g>
            </g>
        </g>
    </g>
</svg>